<?xml version="1.0" encoding="utf-8"?>
<!-- Generator: Adobe Illustrator 14.0.0, SVG Export Plug-In . SVG Version: 6.00 Build 43363)  -->
<!DOCTYPE svg PUBLIC "-//W3C//DTD SVG 1.1//EN" "http://www.w3.org/Graphics/SVG/1.1/DTD/svg11.dtd">
<svg version="1.1" id="Layer_1" xmlns="http://www.w3.org/2000/svg" xmlns:xlink="http://www.w3.org/1999/xlink" x="0px" y="0px"
	 width="800px" height="600px" viewBox="0 0 800 600" enable-background="new 0 0 800 600" xml:space="preserve">
<g>
	<text transform="matrix(1 0 0 1 218.2778 562.6807)" fill="#FFFFFF" font-family="'PTSans-Bold'" font-size="108.181">sysunite</text>
	<path fill="#FFFFFF" d="M568.438,245.14l-2.448-5.24L465.1,261.263c-7.139-13.633-16.68-25.899-28.125-36.196l102.027-21.601
		l-14.191-9.958c-1.053-0.739-2.1-1.476-3.189-2.182c-21.862-14.226-47.158-21.493-73.137-21.015
		c-43.235,0.796-83.11,22.884-106.657,59.083c-0.228,0.353-0.438,0.713-0.66,1.069l-100.775,21.334l-1.634,2.707
		c-11.76,19.471-18.21,41.736-18.66,64.387l-0.184,9.165l101.104-21.405c0.702,13.785,3.601,27.468,8.548,40.345L228.455,368.4
		l3.883,8.309c9.593,20.521,24.516,38.257,43.149,51.295l2.591,1.811l100.777-21.337c0.348,0.238,0.685,0.48,1.037,0.71
		c21.866,14.226,47.159,21.492,73.147,21.016c0.007,0,0.007,0,0.011,0c43.224-0.795,83.094-22.882,106.652-59.095
		c0.725-1.117,1.41-2.258,2.094-3.396l8.834-14.721l-101.998,21.596c6.288-14.049,10.034-29.131,11.04-44.489l100.887-21.36
		l0.113-5.778C581.072,283.118,576.84,263.125,568.438,245.14z M448.749,184.873c18.333-0.338,36.285,3.672,52.623,11.672
		l-138.897,29.407C383.787,200.612,415.121,185.491,448.749,184.873z M249.647,264.724l169.088-35.796
		c12.875,9.537,23.615,21.647,31.51,35.479L320.956,291.78l0,0l-85.737,18.153C236.823,294.085,241.742,278.658,249.647,264.724z
		 M452.786,415.644c-0.004,0-0.009,0-0.013,0c-18.333,0.337-36.28-3.673-52.623-11.674l138.899-29.406
		C517.738,399.905,486.407,415.024,452.786,415.644z M438.655,380.933l-157.354,33.313c-12.87-9.532-23.615-21.645-31.51-35.478
		l215.022-45.522c-1.607,15.846-6.521,31.271-14.423,45.204L438.655,380.933z M343.975,343.94
		c-5.205-12.78-8.118-26.533-8.541-40.341l136.143-28.823v-0.001l85.972-18.201c5.206,12.789,8.116,26.544,8.537,40.342
		L343.975,343.94z"/>
</g>
</svg>
